<svg xmlns="http://www.w3.org/2000/svg" aria-hidden="true" style="position:absolute;width:0;height:0;overflow:hidden"><defs><symbol id="icon-book" viewBox="0 0 32 32"><path fill="#fff" d="M3.6 2.688v15.16l5 1.908V18.25c-1.407-.201-2.817-.54-3.908-1.678l.844-.809c.759.792 1.814 1.079 3.018 1.273L6.917 3.438c-1.085-.207-2.198-.433-3.316-.752zm24.82.001c-4.074 1.087-8.647.006-11.951 4.426v13.051c1.237-1.822 2.84-2.554 4.42-2.908 2.12-.475 4.136-.448 5.719-1.727l.734.908c-1.953 1.579-4.266 1.524-6.197 1.957-1.831.41-3.374 1.102-4.516 3.949l11.791-4.498zM8.051 3.08l1.713 14.26.004.035v13.557l1.246-2.455 1.279 2.385v-12.31L10.535 3.595zm3.779 1.516 1.6 13.611q.392.215.762.504c.403.319.776.71 1.109 1.186V6.844c-.968-1.092-2.15-1.77-3.471-2.248m-10.549.053v14.988l7.318 2.689v-1.244l-6.15-2.26V4.648zm28.287.001v14.172l-13.559 4.981-2.549-.936v2.392c1.451.502 3.63.426 5.391-.158v-1.098l11.885-4.367V4.65zM13.461 19.621v1.988l1.723.658c-.44-1.303-1.035-2.104-1.715-2.641l-.008-.006z" style="fill:var(--color1, #fff)"/></symbol><symbol id="icon-close" viewBox="0 0 32 32"><path fill="#fff" d="m8.532 25.333-1.867-1.867 7.467-7.467-7.467-7.467 1.867-1.867 7.467 7.467 7.467-7.467 1.867 1.867-7.467 7.467 7.467 7.467-1.867 1.867-7.467-7.467z" style="fill:var(--color1, #fff)"/></symbol><symbol id="icon-email" viewBox="0 0 32 32"><path fill="#fff" d="M28.415 3.585a2 2 0 0 0-1.958-.51h-.019l-23.993 7.28a1.998 1.998 0 0 0-1.182 2.916 2 2 0 0 0 .87.809l10.615 5.17 5.163 10.609a1.98 1.98 0 0 0 1.978 1.133 1.98 1.98 0 0 0 1.75-1.438l7.275-23.993v-.019a2 2 0 0 0-.5-1.958zm-8.686 25.396-.006.017v-.009l-5.007-10.288 6-6a1 1 0 0 0-1.413-1.414l-6 6L3.02 12.28l23.981-7.281L19.73 28.98z" style="fill:var(--color1, #fff)"/></symbol><symbol id="icon-island" viewBox="0 0 32 32"><path fill="#fff" d="M5.054 1.77c-.627.01-1.254.217-1.857.691 1.756-.495 4.053 1.331 4.839 3.445-2.068.179-4.843 1.325-5.773 3.799 2.824-2.212 4.84-3.094 6.074-1.79-1.272 1.264-2.356 3.116-2.17 4.816.531-1.219 1.915-2.95 3.36-3.56l-.002.046a1.098 1.098 0 0 0 1.973.66c2.693 3.894 2.919 6.498 2.937 10.696.076.235.207.854.544.833.134-.009.493-.262.578-.932-.041-4.505-.416-7.554-3.728-12.056q.009-.04.015-.083c.798-1.595 3.946-.783 5.325-.459-1.247-1.517-3.941-2.086-5.704-1.885.437-1.499 2.599-2.237 4.97-2.493-2.205-.908-5.226-.163-6.781 1.161-1.183-1.477-2.889-2.918-4.601-2.891zm14.724 3.749c-.901-.017-1.913.331-2.99 1.23 3.474-.61 4.139.871 4.079 2.578-1.741-.248-4.092.143-5.233 1.53.953-.224 2.75-.367 4.033.1a1.098 1.098 0 0 0 1.106 1.713c-1.824 2.508-2.724 4.838-3.103 6.86q.555.06 1.111.156c.392-2.069 1.385-4.506 3.551-7.203a1.094 1.094 0 0 0 1.904-.536c1.523.15 3.298 1.226 4.182 2.137-.405-1.584-1.944-2.89-3.507-3.645 1.25-1.257 4.035-1.74 5.32-1.678-3.013-1.39-5.459-1.267-6.879-.577-.621-1.353-1.909-2.633-3.576-2.665zM1.125 20.438v1.125H7.39a25 25 0 0 1 2.84-1.125zm20.668 0c.984.319 1.944.701 2.858 1.125h6.223v-1.125h-9.082zm-5.116.143c-.123 1.063-.74 1.886-1.619 1.948-1.068-.068-1.53-.85-1.725-1.715-2.086.371-4.205 1.126-6.082 2.065-2.3 1.15-4.235 2.592-5.309 3.827.305.093.645.195 1.063.303 1.015.261 2.256.489 2.948.431.551-.046 1.128-.349 1.774-.704s1.364-.764 2.24-.814c1.188-.068 2.251.357 3.24.752s1.91.763 2.793.764c.555.001 1.148-.206 1.802-.451s1.369-.529 2.184-.549c1.931-.046 3.541.976 5.023 1 .912.015 2.408-.226 3.639-.477a47 47 0 0 0 1.386-.307c-1.038-1.212-2.95-2.637-5.236-3.774-2.494-1.24-5.426-2.164-8.121-2.3zm-6.111 6.853c-1.106.054-2.216.538-3.201 1-.563.264-1.084.528-1.51.718s-.785.285-.855.285c-1.604 0-3.059-.794-3.875-1.343v1.342c.96.554 2.325 1.126 3.875 1.126.454 0 .844-.174 1.312-.382s.988-.473 1.53-.727c1.086-.509 2.274-.952 3.117-.892.546.039 1.091.392 1.716.844s1.316 1.001 2.234 1.15c1.316.213 2.561-.126 3.732-.451s2.275-.637 3.307-.544c.375.034.71.225 1.179.473s1.075.53 1.871.53c.934 0 2.415-.258 3.721-.51a81 81 0 0 0 2.154-.448v-1.149l-.001-.003s-1.082.248-2.366.496-2.803.49-3.508.49c-.543 0-.913-.171-1.346-.399s-.928-.538-1.603-.598c-1.316-.119-2.549.258-3.709.58s-2.241.589-3.252.425c-.553-.09-1.118-.489-1.754-.95s-1.355-.989-2.296-1.056a4 4 0 0 0-.473-.005z" style="fill:var(--color1, #fff)"/></symbol><symbol id="icon-lightning" viewBox="0 0 32 32"><path fill="#fff" d="M11.406 1.285C12.92 12.907 5.514 18.86 7.05 24.594a6.6 6.6 0 0 0 1.182 2.336 4.4 4.4 0 0 1-.264-1.406c-.066-3.083 3.156-5.764 5.459-10.078.721 1.954 1.487 4.294 1.047 7.268 3.933-1.142 6.922-4.157 7.574-7.353 2.313 4.139 2.606 8.841.055 12.299a2.3 2.3 0 0 0-.096-.574c-.437-1.466-2.478-2.281-4.543-1.752-3.821.979-4.351 6.166 1.039 5.326l.084-.014c1.528-.233 2.946-.802 4.057-1.754 9.279-7.947 1.617-22.417-11.238-27.605z" style="fill:var(--color1, #fff)"/></symbol><symbol id="icon-menu" viewBox="0 0 32 32"><path fill="#fff" d="M4 24v-2.667h24V24zm0-6.667v-2.667h24v2.667zm0-6.666V8h24v2.667z" style="fill:var(--color1, #fff)"/></symbol><symbol id="icon-minus" viewBox="0 0 12 1" fill="none">
  <path d="M12 0.5C12 0.632608 11.9473 0.759786 11.8536 0.853554C11.7598 0.947322 11.6326 1 11.5 1H0.5C0.367392 1 0.240215 0.947322 0.146447 0.853554C0.0526785 0.759786 0 0.632608 0 0.5C0 0.367392 0.0526785 0.240215 0.146447 0.146447C0.240215 0.0526785 0.367392 0 0.5 0H11.5C11.6326 0 11.7598 0.0526785 11.8536 0.146447C11.9473 0.240215 12 0.367392 12 0.5Z" fill="white" />
</symbol><symbol id="icon-notes" viewBox="0 0 32 32"><path fill="#fff" d="M6.128 1.159a10.4 10.4 0 0 0-2.255.249l4.258 14.911c-.888-.319-1.949-.387-3.006-.2-2.448.431-4.197 2.113-3.908 3.738.29 1.631 2.509 2.606 4.958 2.169 2.442-.431 4.193-2.106 3.899-3.738A6143 6143 0 0 1 5.925 3.025c3.168.224 4.537 1.974 5.662 3.769-.031-3.896-2.356-5.613-5.459-5.635m19.416 1.919c-.869.006-1.8.162-2.756.451l5.444 14.527c-.913-.244-1.975-.231-3.019.044-2.4.625-4.012 2.438-3.594 4.037.419 1.606 2.713 2.394 5.113 1.762 2.406-.625 4.012-2.438 3.594-4.037-1.787-4.925-3.581-9.931-5.362-14.888 3.175-.031 4.681 1.606 5.95 3.306-.325-3.659-2.525-5.226-5.369-5.204zm-9.394 7.141.113 15.506c-.769-.538-1.775-.894-2.85-.994-2.463-.238-4.606.906-4.762 2.563-.156 1.644 1.731 3.175 4.194 3.406 2.481.244 4.606-.906 4.769-2.556.012-5.238.05-10.556.081-15.819 2.994 1.062 3.85 3.112 4.45 5.15 1.244-4.631-1.744-7.019-5.994-7.256z" style="fill:var(--color1, #fff)"/></symbol><symbol id="icon-playstore" viewBox="0 0 32 32"><path fill="#ea4335" d="M15.066 15.282 2.003 29.341l.002.009C2.406 30.877 3.78 32 5.412 32c.653 0 1.265-.179 1.79-.493l.042-.025 14.703-8.603z" style="fill:var(--color2, #ea4335)"/><path fill="#fbbc04" d="m28.28 12.888-.012-.009-6.348-3.731-7.151 6.453 7.177 7.276 6.314-3.694a3.59 3.59 0 0 0 1.859-3.154 3.58 3.58 0 0 0-1.838-3.142z" style="fill:var(--color3, #fbbc04)"/><path fill="#4285f4" d="M2.003 2.658a3.5 3.5 0 0 0-.12.921v24.843q.001.48.121.919l13.51-13.699z" style="fill:var(--color4, #4285f4)"/><path fill="#34a853" d="m15.163 16 6.76-6.854L7.237.512A3.5 3.5 0 0 0 5.414.001c-1.632 0-3.008 1.126-3.409 2.654l-.001.004 13.159 13.342z" style="fill:var(--color5, #34a853)"/></symbol><symbol id="icon-plus" viewBox="0 0 12 12" fill="none">
  <path d="M12 6C12 6.13261 11.9473 6.25979 11.8536 6.35355C11.7598 6.44732 11.6326 6.5 11.5 6.5H6.5V11.5C6.5 11.6326 6.44732 11.7598 6.35355 11.8536C6.25979 11.9473 6.13261 12 6 12C5.86739 12 5.74021 11.9473 5.64645 11.8536C5.55268 11.7598 5.5 11.6326 5.5 11.5V6.5H0.5C0.367392 6.5 0.240215 6.44732 0.146447 6.35355C0.0526785 6.25979 0 6.13261 0 6C0 5.86739 0.0526785 5.74021 0.146447 5.64645C0.240215 5.55268 0.367392 5.5 0.5 5.5H5.5V0.5C5.5 0.367392 5.55268 0.240215 5.64645 0.146447C5.74021 0.0526785 5.86739 0 6 0C6.13261 0 6.25979 0.0526785 6.35355 0.146447C6.44732 0.240215 6.5 0.367392 6.5 0.5V5.5H11.5C11.6326 5.5 11.7598 5.55268 11.8536 5.64645C11.9473 5.74021 12 5.86739 12 6Z" fill="white" />
</symbol><symbol id="icon-sound" viewBox="0 0 32 32"><path fill="#fff" d="M14.209 1.357A12.79 12.79 0 0 0 4.102 6.204c-4.4 5.543-3.474 13.602 2.069 18.002.4.318.843.62 1.267.883-4.52-4.544-5.041-11.856-.959-16.998s11.322-6.293 16.772-2.922a12.76 12.76 0 0 0-9.042-3.812m2.549 4.251a6.17 6.17 0 0 0-3.187.849l.008.015-.244.122c2.03 4.066 2.762 8.784 2.372 13.598-1.027-1.354-2.815-2.446-4.656-2.711-2.544-.367-4.225.984-3.754 3.017s2.916 3.978 5.46 4.345c2.082.3 3.585-.55 3.804-1.983.53-3.322.563-6.659.036-9.842 3.718-.071 6.886 5.276 4.498 10.691 5.046-4.912.422-14.162-5.08-13.344a25 25 0 0 0-.384-1.261c4.772-1.396 10.328 4.625 8.4 11.929 4.801-6.311-1.117-15.362-7.274-15.424zm7.49.892c4.659 4.401 5.407 11.694 1.486 16.96S14.613 30.102 9.06 26.901c.363.342.769.692 1.179.997 5.676 4.226 13.704 3.05 17.929-2.627s3.05-13.703-2.627-17.929c-.41-.305-.861-.594-1.294-.843z" style="fill:var(--color1, #fff)"/></symbol></defs></svg>